# xmcd
#
# Track frame offsets:
#        150
#        17150
#        34617
#        55320
#        72345
#        93677
#        111157
#        131272
#        147110
#        162877
#
# Disc length: 2427 seconds
#
# Revision: 0
# Processed by: cddbd v1.5.1PL0 Copyright (c) Steve Scherf et al.
# Submitted via: ExactAudioCopy v0.95a5
#
DISCID=8509790a
DTITLE=Presence - Awaking Dogs
DYEAR=1989
DGENRE=Hard Rock
TTITLE0=SHE IS AN AMERICAN
TTITLE1=IN THE DRY WIND
TTITLE2=AWAKING DOG
TTITLE3=VANISH
TTITLE4=TENDERNESS
TTITLE5=BORN TO BE ROCKIN'
TTITLE6=DANCE IS ALIVE
TTITLE7=ZINGARO
TTITLE8=WE'LL MAKE IT TONIGHT
TTITLE9=LAIR
EXTD=
EXTT0=
EXTT1=
EXTT2=
EXTT3=
EXTT4=
EXTT5=
EXTT6=
EXTT7=
EXTT8=
EXTT9=
PLAYORDER=
